<?xml version="1.0" standalone="no"?>
<!DOCTYPE svg PUBLIC "-//W3C//DTD SVG 20010904//EN"
 "http://www.w3.org/TR/2001/REC-SVG-20010904/DTD/svg10.dtd">
<svg version="1.0" xmlns="http://www.w3.org/2000/svg"
 width="100.000000pt" height="100.000000pt" viewBox="0 0 100.000000 100.000000"
 preserveAspectRatio="xMidYMid meet">
<metadata>
Created by potrace 1.14, written by Peter Selinger 2001-2017
</metadata>
<g transform="translate(0.000000,100.000000) scale(0.100000,-0.100000)"
fill="#000000" stroke="none">
<path d="M0 500 l0 -500 500 0 500 0 0 500 0 500 -500 0 -500 0 0 -500z m70
350 c17 -132 72 -298 130 -395 60 -99 161 -199 260 -258 92 -55 263 -111 390
-127 52 -7 99 -16 104 -21 15 -13 -153 -2 -224 15 -62 15 -64 14 -42 -2 37
-29 13 -33 -29 -6 -22 14 -60 29 -85 33 l-46 9 26 -27 c40 -42 17 -46 -25 -5
-26 26 -48 37 -80 41 l-43 6 22 -36 c11 -20 17 -39 12 -42 -4 -3 -20 15 -34
39 -22 37 -31 44 -67 50 -23 4 -43 5 -45 3 -3 -2 3 -23 11 -46 10 -29 11 -41
3 -39 -6 2 -17 22 -25 43 -17 50 -19 51 -70 58 l-43 5 7 -56 c4 -36 3 -53 -4
-49 -6 4 -13 27 -16 52 -2 25 -7 49 -10 52 -3 3 -27 8 -52 10 -25 3 -48 10
-52 16 -4 7 13 8 49 4 l56 -7 -5 43 c-7 51 -8 53 -58 70 -21 8 -41 19 -43 25
-2 8 10 7 39 -3 23 -8 44 -14 46 -11 2 2 1 22 -3 45 -6 36 -13 45 -50 67 -24
14 -42 30 -39 34 3 5 22 -1 42 -12 l36 -22 -6 43 c-4 32 -15 54 -41 80 -41 42
-37 65 5 25 l27 -26 -9 46 c-4 25 -19 63 -33 85 -27 42 -23 66 6 29 16 -22 17
-20 2 42 -17 71 -28 239 -15 224 5 -5 14 -52 21 -104z"/>
<path d="M115 535 c4 -16 13 -37 21 -45 20 -20 17 -1 -7 40 l-20 35 6 -30z"/>
<path d="M130 432 c0 -21 8 -37 27 -51 14 -12 28 -19 30 -17 7 7 -23 70 -40
85 -15 12 -17 10 -17 -17z"/>
<path d="M209 369 c4 -13 19 -30 32 -38 l24 -16 -23 32 c-29 41 -44 51 -33 22z"/>
<path d="M144 329 c3 -17 6 -35 6 -39 0 -9 61 -32 67 -26 10 10 -12 58 -34 76
-36 28 -47 25 -39 -11z"/>
<path d="M235 288 c9 -29 24 -44 53 -53 23 -7 23 -6 8 22 -8 16 -26 35 -41 41
-25 12 -26 11 -20 -10z"/>
<path d="M160 221 c0 -47 14 -61 61 -61 l38 0 -13 37 c-10 28 -21 39 -49 49
l-37 13 0 -38z"/>
<path d="M331 241 c8 -13 25 -28 38 -32 29 -11 19 4 -22 33 l-32 23 16 -24z"/>
<path d="M260 216 c0 -1 5 -17 11 -34 8 -23 18 -31 46 -37 19 -3 37 -4 40 -1
10 10 -28 57 -53 66 -26 10 -44 13 -44 6z"/>
<path d="M366 178 c18 -33 40 -48 67 -48 26 0 28 2 16 17 -12 14 -68 43 -84
43 -4 0 -3 -6 1 -12z"/>
<path d="M490 136 c8 -8 29 -17 45 -21 l30 -6 -35 20 c-41 24 -60 27 -40 7z"/>
</g>
</svg>
